{"title":"The.Last.Ship.S02E12.HDTV.480p.x264.AAC-VYTO","uid":12316590,"size":153626901,"categoryP":"video","categoryS":"tv_shows","magnet":"?xt=urn:btih:451dfed1df2ae8835158ddc3b98bacadef7919f8&amp;dn=The.Last.Ship.S02E12.HDTV.480p.x264.AAC-VYTO&amp;tr=udp%3A%2F%2Ftracker.openbittorrent.com%3A80&amp;tr=udp%3A%2F%2Fopen.demonii.com%3A1337&amp;tr=udp%3A%2F%2Ftracker.coppersurfer.tk%3A6969&amp;tr=udp%3A%2F%2Fexodus.desync.com%3A6969","seeders":7,"leechers":2,"uploader":"ValidusVyto","files":6,"time":1441005712,"description":"The.Last.Ship.S02E12.HDTV.480p.x264.AAC-VYTO\n\n\nGeneral\nFormat                         : MPEG-4\nFile size                      : 141 MiB\nDuration                       : 42mn 4s\nOverall bit rate               : 468 Kbps\n\nVideo\nFormat                         : AVC\nBit rate                       : 433 Kbps\nWidth                          : 720 pixels\nHeight                         : 400 pixels\nDisplay aspect ratio           : 16:9\nFrame rate mode                : Constant\nFrame rate                     : 23.976 fps\nBit depth                      : 8 bits\nStream size                    : 130 MiB (93%)\nWriting library                : x264 core 148 r2597\n\nAudio\nFormat                         : AAC\nBit rate                       : 32.0 Kbps\nChannel(s)                     : 2 channels\nChannel positions              : Front: L R \nSampling rate                  : 48.0 KHz \nStream size                    : 9.63 MiB (7%)\n\n\nScreenshots:\n &lt;a href=&quot;\nhttp://ititli.com/4a&quot; rel=&quot;nofollow&quot; target=&quot;_NEW&quot;&gt;\nhttp://ititli.com/4a&lt;/a&gt; &lt;a href=&quot;\nhttp://ititli.com/4b&quot; rel=&quot;nofollow&quot; target=&quot;_NEW&quot;&gt;\nhttp://ititli.com/4b&lt;/a&gt; &lt;a href=&quot;\nhttp://ititli.com/4z&quot; rel=&quot;nofollow&quot; target=&quot;_NEW&quot;&gt;\nhttp://ititli.com/4z&lt;/a&gt; &lt;a href=&quot;\nhttp://ititli.com/4I&quot; rel=&quot;nofollow&quot; target=&quot;_NEW&quot;&gt;\nhttp://ititli.com/4I&lt;/a&gt; &lt;a href=&quot;\nhttp://ititli.com/4O&quot; rel=&quot;nofollow&quot; target=&quot;_NEW&quot;&gt;\nhttp://ititli.com/4O&lt;/a&gt; &lt;a href=&quot;\nhttp://ititli.com/K9&quot; rel=&quot;nofollow&quot; target=&quot;_NEW&quot;&gt;\nhttp://ititli.com/K9&lt;/a&gt; &lt;a href=&quot;\nhttp://ititli.com/KX&quot; rel=&quot;nofollow&quot; target=&quot;_NEW&quot;&gt;\nhttp://ititli.com/KX&lt;/a&gt; &lt;a href=&quot;\nhttp://ititli.com/Kq&quot; rel=&quot;nofollow&quot; target=&quot;_NEW&quot;&gt;\nhttp://ititli.com/Kq&lt;/a&gt; &lt;a href=&quot;\nhttp://ititli.com/Kr&quot; rel=&quot;nofollow&quot; target=&quot;_NEW&quot;&gt;\nhttp://ititli.com/Kr&lt;/a&gt; &lt;a href=&quot;\nhttp://ititli.com/K1&quot; rel=&quot;nofollow&quot; target=&quot;_NEW&quot;&gt;\nhttp://ititli.com/K1&lt;/a&gt; &lt;a href=&quot;\nhttp://ititli.com/KT&quot; rel=&quot;nofollow&quot; target=&quot;_NEW&quot;&gt;\nhttp://ititli.com/KT&lt;/a&gt; &lt;a href=&quot;\nhttp://ititli.com/KW&quot; rel=&quot;nofollow&quot; target=&quot;_NEW&quot;&gt;\nhttp://ititli.com/KW&lt;/a&gt;\n\n\nSupport us by donating BC - 1FgwdzPsd1y25Gea8wP1qni35uGCtmkRCD","torrent":{"xt":"urn:btih:451dfed1df2ae8835158ddc3b98bacadef7919f8","amp;dn":"The.Last.Ship.S02E12.HDTV.480p.x264.AAC-VYTO","amp;tr":["udp%3A%2F%2Ftracker.openbittorrent.com%3A80","udp%3A%2F%2Fopen.demonii.com%3A1337","udp%3A%2F%2Ftracker.coppersurfer.tk%3A6969","udp%3A%2F%2Fexodus.desync.com%3A6969"],"infoHash":"451dfed1df2ae8835158ddc3b98bacadef7919f8","infoHashBuffer":{"type":"Buffer","data":[69,29,254,209,223,42,232,131,81,88,221,195,185,139,172,173,239,121,25,248]},"announce":[],"urlList":[]}}